HIERARCHY
ROOT Hips
{
	OFFSET -1.602300 6.242603 43.997101
	CHANNELS 6 Xposition Yposition Zposition Zrotation Xrotation Yrotation
	JOINT Chest
	{
		OFFSET -0.204900 1.598101 7.917301
		CHANNELS 6 Xposition Yposition Zposition Zrotation Xrotation Yrotation
		JOINT Chest2
		{
			OFFSET 0.000000 0.000000 3.404099
			CHANNELS 6 Xposition Yposition Zposition Zrotation Xrotation Yrotation
			JOINT Neck
			{
				OFFSET 0.000000 0.000000 7.928600
				CHANNELS 6 Xposition Yposition Zposition Zrotation Xrotation Yrotation
				JOINT Head
				{
					OFFSET 0.000000 0.000000 2.173897
					CHANNELS 6 Xposition Yposition Zposition Zrotation Xrotation Yrotation
					End Site
					{
						OFFSET 0.000000 0.000001 10.404503
					}
				}
			}
			JOINT LeftCollar
			{
				OFFSET 2.833800 -1.396299 4.843300
				CHANNELS 6 Xposition Yposition Zposition Zrotation Xrotation Yrotation
				JOINT LeftShoulder
				{
					OFFSET 4.363600 0.000000 0.000000
					CHANNELS 6 Xposition Yposition Zposition Zrotation Xrotation Yrotation
					JOINT LeftElbow
					{
						OFFSET 0.000000 -0.000001 -10.306900
						CHANNELS 6 Xposition Yposition Zposition Zrotation Xrotation Yrotation
						JOINT LeftWrist
						{
							OFFSET 0.000000 -0.000001 -12.404900
							CHANNELS 6 Xposition Yposition Zposition Zrotation Xrotation Yrotation
							End Site
							{
								OFFSET 0.000000 0.000000 -2.173901
							}
						}
					}
				}
			}
			JOINT RightCollar
			{
				OFFSET -2.354800 -1.897200 5.063099
				CHANNELS 6 Xposition Yposition Zposition Zrotation Xrotation Yrotation
				JOINT RightShoulder
				{
					OFFSET -4.375800 0.000000 0.000000
					CHANNELS 6 Xposition Yposition Zposition Zrotation Xrotation Yrotation
					JOINT RightElbow
					{
						OFFSET 0.000000 -0.000001 -10.005001
						CHANNELS 6 Xposition Yposition Zposition Zrotation Xrotation Yrotation
						JOINT RightWrist
						{
							OFFSET 0.000000 -0.000001 -13.174900
							CHANNELS 6 Xposition Yposition Zposition Zrotation Xrotation Yrotation
							End Site
							{
								OFFSET 0.000000 0.000000 -2.173901
							}
						}
					}
				}
			}
		}
	}
	JOINT LeftHip
	{
		OFFSET 2.240600 0.386800 -2.614101
		CHANNELS 6 Xposition Yposition Zposition Zrotation Xrotation Yrotation
		JOINT LeftKnee
		{
			OFFSET 0.000000 -0.000001 -18.592899
			CHANNELS 6 Xposition Yposition Zposition Zrotation Xrotation Yrotation
			JOINT LeftAnkle
			{
				OFFSET 0.000000 -0.000001 -18.765800
				CHANNELS 6 Xposition Yposition Zposition Zrotation Xrotation Yrotation
				End Site
				{
					OFFSET 0.000000 -8.655000 0.000000
				}
			}
		}
	}
	JOINT RightHip
	{
		OFFSET -2.014900 -0.220900 -2.615898
		CHANNELS 6 Xposition Yposition Zposition Zrotation Xrotation Yrotation
		JOINT RightKnee
		{
			OFFSET 0.000000 -0.000001 -18.633900
			CHANNELS 6 Xposition Yposition Zposition Zrotation Xrotation Yrotation
			JOINT RightAnkle
			{
				OFFSET 0.000000 -0.000001 -18.285101
				CHANNELS 6 Xposition Yposition Zposition Zrotation Xrotation Yrotation
				End Site
				{
					OFFSET 0.000000 -7.524500 0.000000
				}
			}
		}
	}
}
MOTION
Frames: 7
Frame Time: 0.041667
7.383899 9.897505 43.364609 12.752241 -3.934405 2.118539 -0.204901 1.598104 7.917314 -12.632173 5.598744 -1.204764 0.000000 -0.000000 3.404102 12.114379 -6.790717 0.728962 -0.000000 -0.000002 7.928606 -5.027564 6.551650 0.224657 0.000000 -0.000001 2.173904 -0.824077 -2.233382 -0.010331 2.833800 -1.396303 4.843307 -0.823133 6.656879 6.055729 4.363593 0.000003 0.000002 -14.517835 -0.953988 -69.463311 -0.000006 -0.000000 -10.306890 -128.983806 -174.711403 -177.158523 -0.000003 0.000005 -12.404894 -118.410004 179.543161 -183.088589 -2.354801 -1.897201 5.063103 10.183405 4.423855 -5.367817 -4.375791 0.000003 -0.000004 24.044414 -42.399154 98.956607 0.000000 0.000007 -10.004996 -80.825911 -7.469973 -13.223244 0.000000 0.000002 -13.174891 -6.303010 -13.401891 10.731381 2.240601 0.386803 -2.614100 -21.141063 1.794065 -0.307255 -0.000001 -0.000001 -18.592897 16.567083 12.963259 13.228122 -0.000000 -0.000000 -18.765799 11.146039 11.987118 2.395422 -2.014897 -0.220889 -2.615898 -112.750468 -31.995639 -78.941653 -0.000003 0.000002 -18.633898 -0.396503 40.034133 15.665816 -0.000003 0.000006 -18.285097 34.827763 69.765997 -9.392020
7.355801 9.896704 43.366409 12.818592 -3.972307 2.063796 -0.204901 1.598099 7.917307 -12.725642 5.639451 -0.950194 0.000000 0.000001 3.404100 12.103292 -6.839593 0.667828 0.000001 -0.000002 7.928605 -5.016274 6.556105 0.072960 -0.000000 0.000000 2.173898 -0.809618 -2.200530 -0.013400 2.833802 -1.396301 4.843299 -0.767534 6.637049 6.000385 4.363594 0.000003 -0.000001 -14.663614 -0.980355 -69.308559 -0.000001 -0.000001 -10.306896 -129.675048 -174.639509 -177.230637 0.000001 0.000001 -12.404892 -118.474590 179.355918 -183.076254 -2.354800 -1.897202 5.063109 10.214147 4.521824 -5.542389 -4.375796 0.000004 -0.000001 24.647795 -42.709911 99.308485 0.000003 -0.000001 -10.004997 -80.857330 -7.463819 -13.391527 0.000002 0.000001 -13.174895 -5.868832 -13.466405 10.855669 2.240599 0.386798 -2.614100 -21.025474 1.797674 -0.286218 -0.000001 0.000001 -18.592901 16.521055 13.030431 13.206999 -0.000000 -0.000001 -18.765800 11.042392 12.036003 2.108687 -2.014899 -0.220898 -2.615898 -112.662686 -32.030090 -78.902168 -0.000002 0.000006 -18.633900 0.118723 41.285963 15.477081 -0.000002 0.000004 -18.285099 34.051283 69.692921 -9.431656
7.331399 9.895605 43.368008 12.856036 -4.005542 1.995181 -0.204901 1.598096 7.917298 -12.782765 5.671825 -0.763194 0.000000 0.000001 3.404103 12.092452 -6.860682 0.652245 0.000000 0.000001 7.928600 -4.986244 6.565134 -0.061426 0.000000 0.000000 2.173898 -0.825792 -2.169041 -0.012768 2.833801 -1.396298 4.843304 -0.648795 6.499974 5.897633 4.363595 0.000002 0.000009 -14.838248 -0.908548 -69.035126 -0.000002 -0.000001 -10.306898 -130.484057 -174.641667 -177.075386 -0.000005 0.000002 -12.404894 -118.540214 179.371068 -182.892426 -2.354802 -1.897198 5.063099 10.196468 4.531786 -5.572307 -4.375791 0.000004 0.000001 25.161403 -42.971551 99.470511 -0.000002 0.000005 -10.004996 -81.037804 -7.436580 -13.587120 0.000005 -0.000001 -13.174900 -5.288426 -13.565910 11.247068 2.240599 0.386797 -2.614103 -20.907341 1.786575 -0.248456 -0.000002 -0.000001 -18.592905 16.466789 13.102179 13.172038 -0.000000 -0.000001 -18.765800 10.967621 12.081407 1.829532 -2.014897 -0.220898 -2.615902 -112.488236 -32.181362 -78.840621 0.000004 0.000005 -18.633896 0.886237 42.579614 15.061441 -0.000005 0.000009 -18.285095 32.267842 69.640295 -8.795087
7.306601 9.894505 43.368607 12.879082 -4.008658 1.936537 -0.204900 1.598100 7.917310 -12.820350 5.663565 -0.631651 -0.000001 0.000001 3.404096 12.096281 -6.858306 0.643063 -0.000000 -0.000002 7.928608 -4.982173 6.593644 -0.155524 -0.000000 0.000002 2.173906 -0.843823 -2.147609 -0.008438 2.833800 -1.396303 4.843314 -0.555058 6.355711 5.784936 4.363595 0.000001 -0.000003 -14.991855 -0.840137 -68.709756 -0.000005 0.000002 -10.306891 -131.227974 -174.568311 -177.012576 -0.000002 0.000001 -12.404899 -118.730039 179.272153 -182.635666 -2.354802 -1.897202 5.063117 10.166130 4.491659 -5.549532 -4.375788 0.000002 0.000000 25.598741 -43.112776 99.546414 -0.000001 -0.000002 -10.004993 -81.431284 -7.392076 -13.815089 -0.000002 0.000002 -13.174892 -4.533165 -13.671996 11.829800 2.240600 0.386801 -2.614104 -20.808393 1.737328 -0.239093 -0.000001 -0.000001 -18.592896 16.389047 13.194575 13.140265 -0.000000 0.000000 -18.765799 10.933333 12.105526 1.622875 -2.014897 -0.220897 -2.615897 -112.262902 -32.356327 -78.781792 -0.000006 0.000007 -18.633896 1.597345 43.791748 14.625933 -0.000003 0.000010 -18.285091 31.359075 69.503336 -8.868709
7.282599 9.893806 43.369007 12.895399 -4.003704 1.906003 -0.204901 1.598099 7.917311 -12.843087 5.646795 -0.572843 -0.000000 0.000000 3.404104 12.136612 -6.842235 0.647260 -0.000000 0.000000 7.928604 -5.028145 6.636254 -0.209200 -0.000000 0.000001 2.173900 -0.869932 -2.131995 0.009810 2.833800 -1.396302 4.843304 -0.571640 6.345510 5.712643 4.363590 0.000003 -0.000000 -15.098693 -0.910120 -68.421509 -0.000003 0.000001 -10.306897 -131.955935 -174.493384 -176.963043 -0.000005 0.000004 -12.404893 -119.156680 179.076140 -182.145627 -2.354800 -1.897202 5.063107 10.121400 4.435054 -5.570320 -4.375790 0.000004 0.000000 26.018296 -43.098012 99.667971 0.000004 -0.000006 -10.004995 -81.886674 -7.363211 -14.070132 0.000005 0.000001 -13.174895 -3.830208 -13.813926 12.617336 2.240600 0.386800 -2.614101 -20.711756 1.668466 -0.251252 -0.000002 -0.000002 -18.592899 16.277750 13.312117 13.101038 -0.000002 0.000001 -18.765799 10.963178 12.121963 1.385603 -2.014898 -0.220896 -2.615896 -111.977297 -32.543574 -78.687481 -0.000001 0.000002 -18.633896 2.433276 44.983602 14.059111 -0.000000 0.000007 -18.285097 30.341299 69.324392 -8.925053
7.257699 9.893005 43.368607 12.930220 -4.006603 1.896062 -0.204901 1.598099 7.917310 -12.879303 5.648719 -0.557372 -0.000000 -0.000001 3.404096 12.164850 -6.826681 0.653432 0.000002 0.000000 7.928599 -5.079811 6.681633 -0.231279 0.000001 -0.000000 2.173904 -0.899057 -2.124666 0.038425 2.833802 -1.396300 4.843311 -0.596042 6.365164 5.669611 4.363595 0.000003 0.000005 -15.194092 -1.011970 -68.149572 -0.000005 0.000001 -10.306894 -132.669144 -174.403649 -176.902637 -0.000000 0.000003 -12.404893 -119.570466 178.950451 -181.797602 -2.354800 -1.897199 5.063107 10.097037 4.390938 -5.600050 -4.375791 0.000003 -0.000011 26.417435 -42.890306 99.790081 0.000004 0.000003 -10.004994 -82.399382 -7.385959 -14.317840 0.000006 0.000006 -13.174891 -3.315308 -13.936752 13.178523 2.240600 0.386800 -2.614094 -20.701629 1.616734 -0.277721 -0.000002 -0.000003 -18.592897 16.122692 13.410095 13.079560 -0.000001 -0.000001 -18.765799 11.072754 12.082541 1.373408 -2.014899 -0.220897 -2.615894 -111.690450 -32.713307 -78.560426 -0.000003 0.000000 -18.633898 2.959891 46.059043 13.646659 -0.000009 0.000008 -18.285095 29.643793 69.201243 -9.082054
7.230999 9.891605 43.366604 12.967847 -3.996267 1.929958 -0.204900 1.598096 7.917309 -12.909791 5.645216 -0.624025 0.000000 0.000002 3.404099 12.171013 -6.802340 0.660913 -0.000001 0.000002 7.928596 -5.119188 6.721558 -0.207933 0.000000 0.000000 2.173901 -0.921849 -2.124856 0.073257 2.833800 -1.396299 4.843298 -0.626324 6.397045 5.670278 4.363595 0.000001 -0.000001 -15.326637 -1.149557 -67.929681 0.000006 0.000001 -10.306895 -133.542957 -174.411216 -176.907090 -0.000001 0.000004 -12.404889 -119.735825 178.885291 -181.525678 -2.354801 -1.897198 5.063098 10.101871 4.360659 -5.603652 -4.375789 0.000004 0.000002 26.749860 -42.520489 99.874072 0.000007 0.000009 -10.004991 -82.964109 -7.442089 -14.587392 -0.000000 0.000004 -13.174889 -2.894555 -14.061898 13.489719 2.240601 0.386796 -2.614092 -20.724939 1.565751 -0.344302 0.000000 -0.000003 -18.592897 15.947172 13.498682 13.062546 0.000000 -0.000001 -18.765797 11.221516 12.004260 1.509194 -2.014899 -0.220900 -2.615899 -111.410316 -32.842934 -78.440051 -0.000004 0.000007 -18.633896 3.531112 47.162774 13.192399 -0.000002 0.000008 -18.285097 29.015972 69.077118 -9.373352
